<?xml version="1.0" encoding="UTF-8" standalone="no"?><svg xmlns="http://www.w3.org/2000/svg" height="48" viewBox="0 0 48 48"><path d="M6.45.99h35.1q2.29 0 4.02 1.8Q47 4.45 47 6.45v35.1q0 1.99-1.4 3.62Q43.83 47 41.54 47H6.48q-2.45 0-4.24-1.99Q.99 43.38.99 41.55V6.45q0-2.29 1.8-4.02Q4.46.99 6.45.99z" fill="#000000"/><g fill="#ffffff"><path d="M24 10c-3.8 0-4.28.02-5.77.09-1.5.06-2.51.3-3.4.65-.92.35-1.7.83-2.48 1.61a6.87 6.87 0 00-1.62 2.48c-.34.9-.58 1.9-.65 3.4-.06 1.5-.08 1.97-.08 5.77s.02 4.28.08 5.77c.07 1.5.3 2.51.65 3.4.36.92.84 1.7 1.62 2.48a6.86 6.86 0 002.48 1.62c.89.34 1.9.58 3.4.65 1.49.06 1.97.08 5.77.08s4.28-.02 5.77-.08c1.5-.07 2.5-.3 3.4-.65.92-.36 1.7-.84 2.48-1.62a6.86 6.86 0 001.61-2.48c.35-.89.59-1.9.66-3.4.06-1.5.08-1.97.08-5.77s-.02-4.28-.08-5.77c-.07-1.5-.31-2.51-.66-3.4a6.86 6.86 0 00-1.61-2.48 6.86 6.86 0 00-2.48-1.61c-.9-.35-1.9-.59-3.4-.66-1.5-.06-1.97-.08-5.77-.08zm0 2.52c3.74 0 4.18.02 5.66.08 1.36.07 2.1.3 2.6.49.65.25 1.12.55 1.6 1.04.5.5.8.96 1.05 1.61.2.5.42 1.24.49 2.6.06 1.48.08 1.92.08 5.66s-.02 4.18-.08 5.66a7.75 7.75 0 01-.49 2.6 4.34 4.34 0 01-1.04 1.6c-.5.5-.96.8-1.61 1.05-.5.2-1.24.42-2.6.49-1.48.06-1.92.08-5.66.08s-4.18-.02-5.66-.08a7.75 7.75 0 01-2.6-.49 4.34 4.34 0 01-1.6-1.04c-.5-.5-.8-.96-1.05-1.61-.2-.5-.42-1.24-.49-2.6a97.16 97.16 0 01-.08-5.66c0-3.74.02-4.18.08-5.66.07-1.36.3-2.1.49-2.6.25-.65.55-1.12 1.04-1.6.5-.5.96-.8 1.61-1.05.5-.2 1.24-.42 2.6-.49 1.48-.06 1.92-.08 5.66-.08"/><path d="M24 28.67a4.67 4.67 0 110-9.34 4.67 4.67 0 010 9.34zm0-11.86a7.19 7.19 0 100 14.38 7.19 7.19 0 000-14.38M33.15 16.53a1.68 1.68 0 11-3.36 0 1.68 1.68 0 013.36 0"/></g></svg>