<?xml version="1.0" encoding="UTF-8" standalone="no"?><svg xmlns="http://www.w3.org/2000/svg" height="48" viewBox="0 0 48 48"><path d="M6.45.99h35.1q2.29 0 4.02 1.8Q47 4.45 47 6.45v35.1q0 1.99-1.4 3.62Q43.83 47 41.54 47H6.48q-2.45 0-4.24-1.99Q.99 43.38.99 41.55V6.45q0-2.29 1.8-4.02Q4.46.99 6.45.99z" fill="#000000"/><path d="M18.8 35.38c10.56 0 16.34-8.76 16.34-16.34l-.01-.74A11.7 11.7 0 0038 15.32c-1.03.46-2.14.76-3.3.9a5.78 5.78 0 002.53-3.18c-1.11.66-2.35 1.13-3.66 1.4a5.73 5.73 0 00-9.94 3.92c0 .45.06.89.15 1.31-4.77-.23-9-2.53-11.84-6a5.75 5.75 0 001.78 7.67 5.81 5.81 0 01-2.6-.71v.08c0 2.77 1.98 5.1 4.6 5.63a5.6 5.6 0 01-2.58.1 5.74 5.74 0 005.36 3.99 11.52 11.52 0 01-8.5 2.39 16.34 16.34 0 008.8 2.56" class="st1" fill="#ffffff"/></svg>