<?xml version="1.0" encoding="UTF-8" standalone="no"?><svg xmlns="http://www.w3.org/2000/svg" height="48" viewBox="0 0 48 48"><path d="M6.45.99h35.1q2.29 0 4.02 1.8Q47 4.45 47 6.45v35.1q0 1.99-1.4 3.62Q43.83 47 41.54 47H6.48q-2.45 0-4.24-1.99Q.99 43.38.99 41.55V6.45q0-2.29 1.8-4.02Q4.46.99 6.45.99z" fill="#000000"/><path d="M24 14.2s-8.76 0-10.94.59a3.5 3.5 0 00-2.48 2.47C10 19.44 10 24 10 24s0 4.56.58 6.74a3.5 3.5 0 002.48 2.48c2.18.58 10.94.58 10.94.58s8.75 0 10.94-.58a3.5 3.5 0 002.47-2.48C38 28.56 38 24 38 24s0-4.56-.59-6.74a3.5 3.5 0 00-2.47-2.47C32.75 14.2 24 14.2 24 14.2zm-2.8 5.6l7.27 4.2-7.27 4.2z" fill="#ffffff"/></svg>